<svg width="7" height="12" viewBox="0 0 7 12" fill="none" xmlns="http://www.w3.org/2000/svg">
<path d="M0.290853 10.9772C0.104602 10.7899 6.06066e-05 10.5364 6.06181e-05 10.2722C6.06297e-05 10.0081 0.104602 9.75461 0.290853 9.56724L3.83085 5.97724L0.290853 2.43724C0.104602 2.24988 6.09799e-05 1.99643 6.09914e-05 1.73224C6.1003e-05 1.46806 0.104603 1.21461 0.290853 1.02724C0.383816 0.933515 0.494417 0.859121 0.616277 0.808352C0.738136 0.757583 0.868842 0.731445 1.00085 0.731445C1.13287 0.731445 1.26357 0.757583 1.38543 0.808352C1.50729 0.859121 1.61789 0.933515 1.71085 1.02724L5.95085 5.26724C6.04458 5.36021 6.11898 5.47081 6.16974 5.59267C6.22051 5.71453 6.24665 5.84523 6.24665 5.97724C6.24665 6.10926 6.22051 6.23996 6.16974 6.36182C6.11898 6.48368 6.04458 6.59428 5.95085 6.68724L1.71085 10.9772C1.61789 11.071 1.50729 11.1454 1.38543 11.1961C1.26357 11.2469 1.13286 11.273 1.00085 11.273C0.868841 11.273 0.738136 11.2469 0.616276 11.1961C0.494417 11.1454 0.383816 11.071 0.290853 10.9772Z" fill="#212329"/>
</svg>
